<svg xmlns="http://www.w3.org/2000/svg" width="118" height="41.043" viewBox="0 0 118 41.043">
  <path id="iBahia_logo_branca" d="M20195.574-10102.268c6.063-2.463,18.238-6.555,21.715-14.727.873-2.062-2.1-.686-2.887-.271-2.385,1.262-4.633,3.107-7.318,4.26-3.639,1.311-5.947-1.436-3.225-3.484a26.808,26.808,0,0,1,2.891-1.809l0-.008c2.6-1.557,4.781-2.531,7.057-4.561a12.032,12.032,0,0,0,1.514-1.592,3.25,3.25,0,0,0,.912-1.928c-.029-.723-.746-.852-1.336-.742-.211.039-1.088.283-1.135.3a26.254,26.254,0,0,0-8.148,5.406,65.42,65.42,0,0,0-6.061,6.252c-.947,1.105-3.205,4.125-3.672,4.635l-.006,0a.472.472,0,0,1-.062.063l0,0c-1.463,1.391-6.143.9-6.666-1.09a17.893,17.893,0,0,1-.574-3.928,5.91,5.91,0,0,1-.611.3,5.677,5.677,0,0,1-5.082-.533,1.468,1.468,0,0,1,.123-2.715c.055-.027.613-.336.77-.445a16.2,16.2,0,0,0,1.344-1.02,31.5,31.5,0,0,0,5.516-6.455c.574-1.439,3.469-1.2,4.566-.914,1.246.324,2.857,1.191,2.256,2.689a21.87,21.87,0,0,0-1.057,3.59c.947-.955,1.912-1.895,2.908-2.793a44.218,44.218,0,0,1,6.43-5.232c2.143-1.27,4.459-2.549,6.961-2.645,9.225-.352,8.563,7.289,6.654,11.006a5.685,5.685,0,0,1,3.184,2.588,24.932,24.932,0,0,1,4.32-2.309c8.43-3.014,11.975-.781,13.244.648a29.628,29.628,0,0,1,1.277,2.717c.354-.3,6.295-14.254,8.732-19.756.541-1.219,3.5-1.023,4.469-.891.844.115,3.057.541,2.48,1.834-1.719,3.885-4.164,8.473-5.877,12.354.313-.027.777-.506,1.684-.738,2.117-.551,4.564.287,5.211,2.2a5.416,5.416,0,0,1,.234,2.119c.543-.484,2.09-2.783,2.273-2.916,1.613-1.164,6.785-.771,6.742.977-.018.768-.35,2.713-.418,3.475,0,0,9.758-5.252,13.41-5.492,3.41-.094,6.387,1.615,5.971,3.078-.187.639-.656,1.477-.9,2.092a7.16,7.16,0,0,0-.451,1.891c-.123,1.152,1.172,2.893,2.131,3.4a7.109,7.109,0,0,0,2.105.709,11.281,11.281,0,0,0,1.477.033c.064-.006,2.037-.1,2.928-.2,1.74-.2,1.535-.2,2.7-.258a2.907,2.907,0,0,1,2.547,1.363c.213.279.645.764-1.221,1.416a14.226,14.226,0,0,1-2.584.486,40.877,40.877,0,0,1-4.262.205c-2.9.066-5.625.063-8.3-1.125a8.067,8.067,0,0,1-2.111-1.316c-.549.4-1.1.771-1.658,1.105a12.783,12.783,0,0,1-7.137,1.969c-2.17-.121-4.529-.607-5.859-2.418a3.256,3.256,0,0,1-.586,1.393c-.074.068-3.809,1.672-5.424-.2-.484-.562-.691-2.133-.777-3.457-1.037.994-1.857,1.977-2.961,3.014-.879.83-2.064,2.113-3.047,2.236a.37.37,0,0,0-.076.01c-2.3.256-4.588.32-4.139-1.266,2.469-8.68.965-7.758,1.055-7.889-.885,1.223-3.865,7.939-4.869,10.246-.543,1.219-3.885.9-4.85.777-.588-.082-2.465-3.551-3.9-5.262-2.936,3.436-5.609,5.166-10.145,5.773-4,.607-6.566-.281-7.744-1.875-3.135,2.83-9.973,7.135-17.523,9.7a8.068,8.068,0,0,1-2.586.467C20194.352-10097.766,20193.141-10101.236,20195.574-10102.268Zm29-8.031c6.973-.658,8.426-6.137,8.264-7.354-3.293,1.139-8.814,4.324-8.254,7.326Zm47.227-2.621,0,.047c3.477.363,8.025-3.016,7.576-6.307-3.6.881-7.711,3.7-7.619,6.225Zm0,.029v0Zm-6.4-11.961a3.523,3.523,0,0,1-3.434-3.623,3.5,3.5,0,0,1,1.1-2.473,3.515,3.515,0,0,1,2.521-.969,3.545,3.545,0,0,1,3.438,3.625,3.532,3.532,0,0,1-3.529,3.443l-.1-.01Zm-69.123-4.418a3.526,3.526,0,0,1-3.145-3.877,3.568,3.568,0,0,1,1.289-2.383,3.515,3.515,0,0,1,2.588-.768,3.538,3.538,0,0,1,3.141,3.885,3.533,3.533,0,0,1-3.5,3.162,3.108,3.108,0,0,1-.428-.018Z" transform="translate(-20181.529 10138.287)" fill="#fff" stroke="#f44336" stroke-width="1"/>
</svg>
